<?xml version="1.0" encoding="UTF-8"?>
<svg id="b" data-name="Layer 2" xmlns="http://www.w3.org/2000/svg" viewBox="0 0 877.7 46.3">
  <defs>
    <style>
      .d {
        fill: #a88a4e;
      }
    </style>
  </defs>
  <g id="c" data-name="Layer 1">
    <g>
      <g>
        <g>
          <path class="d" d="m24.4,22.2c2.1-.8,3.7-2.1,4.9-3.9,1.2-1.8,1.8-4.1,1.8-6.6,0-3.8-1.3-6.6-3.8-8.4-1.3-.9-2.7-1.5-4.3-1.8-1.6-.3-3.5-.5-5.7-.5H0v44.3h17.6c2.5,0,4.7-.3,6.5-.8,1.9-.5,3.4-1.4,4.7-2.5,2.2-2.1,3.4-5.3,3.4-9.6s-.7-4.9-2.1-6.6c-1.4-1.7-3.3-2.9-5.6-3.6ZM6.2,6.5h13.6c3.2,0,4.8,1.5,4.8,4.5v4c0,1.4-.4,2.5-1.2,3.4-.8.9-2,1.3-3.7,1.3H6.2V6.5Zm19.4,28.4c0,1.7-.5,2.9-1.5,3.7-1,.8-2.3,1.2-4,1.2H6.2v-14.6h14.3c1.5,0,2.8.4,3.7,1.1.9.7,1.4,1.8,1.4,3.3v5.3Z"/>
          <rect class="d" x="35.1" y="1" width="5.9" height="44.3"/>
          <path class="d" d="m70.4,22.6c0-2-.3-3.6-.9-5.1-.6-1.4-1.5-2.6-2.6-3.5-1.1-.9-2.5-1.6-4-2.1-1.5-.5-3.2-.7-5-.7s-3.4.3-5,.8c-1.5.5-2.9,1.3-4,2.2-1.1,1-2.1,2.1-2.7,3.4-.7,1.3-1,2.7-1,4.3h5.9c0-2.1.6-3.7,1.9-4.6,1.2-.9,2.9-1.4,5-1.4s2,.1,2.8.3c.8.2,1.6.6,2.2,1,.6.5,1.1,1.2,1.4,2,.3.8.5,1.9.5,3.2v2.7l-10.8,1c-3.3.3-5.8,1.4-7.4,3.2-1.7,1.9-2.5,4.1-2.5,6.7s.2,2.6.7,3.8c.5,1.2,1.2,2.2,2,3.1,1,1,2.1,1.7,3.5,2.3s2.8.8,4.5.8c2.5,0,4.6-.6,6.4-1.7,1.8-1.1,3.1-2.9,4-5.2h.3v6.1h10.1v-5h-5v-17.7Zm-5.7,8.6c0,3-.8,5.4-2.3,7.3-1.5,1.9-3.6,2.8-6.3,2.8s-3.3-.4-4.4-1.1c-1.1-.7-1.6-1.8-1.6-3.4v-2.9c0-1,.2-1.7.5-2.3.3-.6,1.1-.9,2.3-1l11.8-1.1v1.5Z"/>
          <path class="d" d="m94.8,39.6c-1.4,1.2-3.2,1.7-5.4,1.7s-2.1-.2-3-.6c-.9-.4-1.8-.9-2.5-1.6-.7-.7-1.3-1.5-1.7-2.5-.4-1-.6-2.1-.6-3.2v-9.8c0-1.3.2-2.4.7-3.4.4-1,1-1.8,1.8-2.4.7-.7,1.6-1.2,2.5-1.5.9-.3,1.9-.5,2.9-.5s1.9.1,2.8.3c.9.2,1.7.6,2.4,1.1.7.5,1.3,1.3,1.7,2.2.4.9.7,2,.8,3.4h5.9c-.2-2-.6-3.8-1.4-5.2-.7-1.5-1.7-2.7-2.9-3.6-1.2-1-2.5-1.7-4.1-2.1-1.5-.5-3.2-.7-4.9-.7s-4.3.4-6.1,1.3c-1.8.8-3.3,2-4.5,3.5-1.2,1.5-2.1,3.4-2.8,5.6-.6,2.2-.9,4.6-.9,7.3s.3,4.8.8,6.8c.6,2.1,1.4,3.9,2.6,5.4,1.2,1.5,2.6,2.7,4.4,3.6,1.8.8,3.8,1.3,6.3,1.3s3.3-.2,4.8-.7c1.5-.5,2.9-1.2,4.1-2.2,1.2-1,2.2-2.2,3.1-3.7.8-1.5,1.3-3.3,1.6-5.3h-5.9c-.2,2.5-1,4.3-2.5,5.5Z"/>
          <path class="d" d="m168.9,38.9c-1.8,1.3-4.2,2-7.2,2s-3-.3-4.4-.8-2.6-1.3-3.6-2.3c-1-1-1.8-2.1-2.4-3.5-.6-1.3-.9-2.8-.9-4.3v-13.7c0-1.6.3-3.1.8-4.4.5-1.3,1.3-2.5,2.3-3.4,1-1,2.1-1.7,3.5-2.2,1.3-.5,2.8-.8,4.3-.8,2.9,0,5.2.7,7,2.1,1.7,1.4,2.8,3.4,3.1,6h6.2c-.1-2.1-.6-4-1.5-5.6-.8-1.7-2-3.1-3.4-4.3-1.4-1.2-3-2.1-4.9-2.7-1.9-.6-3.8-.9-6-.9-3.1,0-5.8.5-8.1,1.6-2.3,1.1-4.2,2.6-5.7,4.7-1.5,2-2.6,4.5-3.4,7.4-.7,2.9-1.1,6.2-1.1,9.8s.4,6.6,1.2,9.4c.8,2.8,2,5.2,3.5,7.2,1.5,2,3.4,3.5,5.7,4.6,2.3,1.1,4.9,1.6,7.8,1.6s4.4-.3,6.3-1c2-.7,3.7-1.6,5.1-2.8,1.5-1.2,2.6-2.6,3.5-4.4.9-1.7,1.4-3.6,1.5-5.7h-6.2c-.3,3-1.4,5.2-3.2,6.5Z"/>
          <path class="d" d="m201.7,31.5c0,2.9-.7,5.3-2.2,7.1-1.5,1.8-3.4,2.8-5.9,2.8s-4.2-.7-5.1-2.1c-.9-1.4-1.4-3.3-1.4-5.7V12.1h-5.9v22.1c0,2.1.3,3.9.8,5.4.5,1.5,1.3,2.7,2.2,3.7s2.1,1.6,3.4,2.1c1.3.4,2.8.7,4.3.7,2.5,0,4.5-.6,6-1.7,1.5-1.1,2.7-2.6,3.7-4.6v5.5h5.9V12.1h-5.9v19.4Z"/>
          <path class="d" d="m238,16.3c-1.1-1.6-2.5-2.8-4.1-3.7-1.7-.9-3.6-1.4-5.8-1.4s-4.7.5-6.4,1.6c-1.8,1.1-3.2,2.6-4.2,4.6V1h-5.9v44.3h5.9v-5.4c1,2,2.4,3.5,4.2,4.6,1.8,1.1,3.9,1.6,6.4,1.6s4.2-.5,5.8-1.4c1.6-.9,3-2.2,4.1-3.7,1.1-1.6,1.9-3.4,2.4-5.5.5-2.1.8-4.4.8-6.8s-.3-4.7-.8-6.8c-.5-2.1-1.4-4-2.4-5.5Zm-2.9,17.5c0,2.2-.8,4.1-2.4,5.5-1.6,1.4-3.6,2.1-6.1,2.1s-5.2-.9-6.8-2.8c-1.6-1.9-2.4-4.2-2.4-7.1v-5.6c0-2.9.8-5.2,2.4-7.1,1.6-1.9,3.8-2.8,6.8-2.8s4.5.7,6.1,2.1c1.6,1.4,2.4,3.2,2.4,5.5v10.3Z"/>
          <path class="d" d="m271.7,30.3v-3.1c0-2.2-.3-4.3-.9-6.2-.6-1.9-1.5-3.6-2.6-5-1.2-1.4-2.6-2.6-4.4-3.4-1.8-.8-3.8-1.2-6.2-1.2s-4.3.4-6.1,1.3c-1.8.9-3.3,2.1-4.5,3.6-1.2,1.5-2.2,3.4-2.8,5.5-.6,2.2-.9,4.5-.9,7s.3,4.9.9,7c.6,2.1,1.5,3.9,2.7,5.5,1.2,1.5,2.7,2.7,4.5,3.6,1.8.9,3.9,1.3,6.3,1.3s3.5-.3,5.1-.8,3-1.3,4.3-2.3c1.3-1,2.3-2.2,3.1-3.5.8-1.4,1.3-3,1.4-4.8h-5.8c-.2,2.3-1.1,4-2.6,5.1-1.5,1.1-3.3,1.6-5.4,1.6s-2-.2-3-.5c-1-.3-1.9-.8-2.6-1.5-.8-.6-1.4-1.4-1.9-2.4-.5-.9-.7-2-.7-3.2v-3.5h22.3Zm-22.3-6.5c0-1.2.2-2.3.7-3.3.4-1,1-1.8,1.8-2.5.8-.7,1.6-1.2,2.6-1.5,1-.3,2-.5,3.1-.5s2.1.2,3.1.5c1,.3,1.9.9,2.6,1.5.8.7,1.3,1.5,1.8,2.5.4,1,.7,2.1.7,3.3v1.8h-16.3v-1.8Z"/>
          <path class="d" d="m129.5,28.8c-1.7-1.9-4.1-2.9-7.4-3.2l-2.5-.2,12.1-13.3h-7.1l-11.2,12.5h-1.9V1h-5.9v44.3h5.9v-16.2l12,1.1c1.2,0,2,.4,2.3,1,.3.5.4,1.3.5,2.2v12h5.9v-9.8h0c0-2.6-.8-4.8-2.5-6.7Z"/>
        </g>
        <g>
          <path class="d" d="m342.5,1h8.7l18.3,36.7h.3V1h6v44.2h-8.7l-18.3-36.9h-.3v36.9h-6V1Z"/>
          <path class="d" d="m378.9,28.6c0-10.1,4.8-17.4,14.9-17.4s14.9,7.2,14.9,17.4-4.8,17.4-14.9,17.4-14.9-7.2-14.9-17.4Zm23.6,5.1v-10.3c0-4.5-4-7.5-8.7-7.5s-8.7,3-8.7,7.5v10.3c0,4.5,4,7.5,8.7,7.5s8.7-3,8.7-7.5Z"/>
          <path class="d" d="m411.6,12h5.9v5.5c1.5-3.6,4.5-6.2,9.2-6.2s8.1,2.1,9.5,6.8c1.4-3.9,4.8-6.8,9.8-6.8s10.3,3.3,10.3,11.8v22.1h-5.9v-21.5c0-4.8-1.8-7.8-6-7.8s-7.5,4.1-7.5,9.9v19.4h-5.8v-21.5c0-4.8-1.8-7.8-6-7.8s-7.5,4.1-7.5,9.9v19.4h-5.9V12Z"/>
          <path class="d" d="m462.7,43c-1.7-1.8-2.7-4.3-2.7-6.9,0-5.2,3.3-9.4,9.9-9.9l10.8-1v-2.7c0-5.1-2.8-6.6-6.9-6.6s-6.8,1.8-6.8,6h-5.9c0-6.2,5.7-10.7,12.7-10.7s12.5,3.5,12.5,11.3v17.6h4.9v5h-9.9v-6.1h-.4c-1.8,4.7-5.5,6.9-10.4,6.9s-6-1-7.9-3Zm17.9-11.8v-1.5l-11.8,1.1c-2.4.2-2.7,1.3-2.7,3.2v2.9c0,3.1,2.3,4.4,6,4.4,5.3,0,8.5-4.2,8.5-10.1Z"/>
          <path class="d" d="m491.4,28.6c0-9.6,4.2-17.4,13.1-17.4s8.5,2.2,10.6,6.2V1h5.9v44.2h-5.9v-5.4c-2.1,4-5.5,6.2-10.5,6.2-9,0-13.3-7.7-13.3-17.4Zm23.7,2.8v-5.6c0-5.7-3.2-9.9-9.1-9.9s-8.5,3.1-8.5,7.5v10.3c0,4.5,3.6,7.5,8.5,7.5s9.1-4.2,9.1-9.9Z"/>
          <path class="d" d="m525.6,1h6.1v6.1h-6.1V1Zm.1,11.1h5.9v33.2h-5.9V12Z"/>
          <path class="d" d="m535.9,28.9c0-10.7,5.2-17.6,14.2-17.6s12.5,3.6,13.2,11.6h-5.9c-.5-5.4-3.8-7-7.7-7s-7.7,2.7-7.7,7.8v9.8c0,4.7,3.5,7.8,7.8,7.8s7.5-2.3,7.9-7.2h5.9c-.9,8.2-6.8,11.9-13.6,11.9-9.6,0-14.1-7.2-14.1-17.1Z"/>
          <path class="d" d="m589.3,1h6.9l15.3,44.2h-6.5l-3.6-10.9h-17.4l-3.6,10.9h-6.4l15.3-44.2Zm10.5,28.2l-6.9-21.3h-.3l-7,21.3h14.1Z"/>
          <path class="d" d="m613.9,12h15.9v5.1h-10.1v28.1h-5.9V12Z"/>
          <path class="d" d="m637.8,17h-5.6v-5h5.6V1h5.8v11.1h7.6v5h-7.6v23.1h7.6v5h-13.4v-28.1Z"/>
          <path class="d" d="m664.9,1h9.8l11.3,34.1h.3l11.2-34.1h9.6v44.2h-5.8V7.6h-.3l-12.5,37.6h-4.9l-12.6-37.6h-.3v37.6h-5.8V1Z"/>
          <path class="d" d="m712.2,34.1V12h5.9v21.5c0,4.7,1.6,7.8,6.5,7.8s8.1-4.1,8.1-9.9V12h5.9v33.2h-5.9v-5.5c-1.8,3.9-4.7,6.2-9.7,6.2s-10.7-3.3-10.7-11.8Z"/>
          <path class="d" d="m742.3,34.7h5.9c.1,4.4,3.6,6.6,7.7,6.6s7.2-1.8,7.2-5.1-1.5-4.2-5.9-5.1l-5.5-1.1c-5.4-1.1-8.5-4.2-8.5-9.4s4.9-9.4,12.2-9.4,12.4,3.2,12.5,10.7h-5.8c-.1-4.4-3.1-6-6.6-6s-6.5,2-6.5,4.7,1.4,4,4.7,4.6l5.6,1.2c6.6,1.4,9.8,4.4,9.8,9.8s-5.3,9.8-13.1,9.8-13.3-3.8-13.5-11.2Z"/>
          <path class="d" d="m771.1,28.6c0-10.1,5.2-17.4,14.3-17.4s14.2,7,14.2,15.9v3.1h-22.3v3.5c0,4.8,4,7.5,8.2,7.5s7.6-2.1,8-6.6h5.9c-.6,7.1-6.8,11.3-13.9,11.3s-14.3-7.2-14.3-17.4Zm22.4-3.1v-1.8c0-4.9-3.8-7.8-8.1-7.8s-8.1,2.9-8.1,7.8v1.8h16.3Z"/>
          <path class="d" d="m803.4,34.1V12h5.9v21.5c0,4.7,1.6,7.8,6.5,7.8s8.1-4.1,8.1-9.9V12h5.9v33.2h-5.9v-5.5c-1.8,3.9-4.7,6.2-9.7,6.2s-10.7-3.3-10.7-11.8Z"/>
          <path class="d" d="m833.1,12h5.8v5.5c1.5-3.6,4.6-6.2,9.2-6.2s8.1,2.1,9.5,6.8c1.4-3.9,4.8-6.8,9.8-6.8s10.3,3.3,10.3,11.8v22.1h-5.9v-21.5c0-4.8-1.8-7.8-6-7.8s-7.5,4.1-7.5,9.9v19.4h-5.9v-21.5c0-4.8-1.8-7.8-6-7.8s-7.5,4.1-7.5,9.9v19.4h-5.8V12Z"/>
        </g>
      </g>
      <polygon class="d" points="316.2 1 283.7 1 283.7 33.5 295.5 45.3 328 45.3 328 12.8 316.2 1"/>
    </g>
  </g>
</svg>