<?xml version="1.0" encoding="UTF-8"?>
<svg id="b" data-name="Layer 2" xmlns="http://www.w3.org/2000/svg" viewBox="0 0 301.8 86.7">
  <defs>
    <style>
      .d {
        fill: #a88a4e;
      }
    </style>
  </defs>
  <g id="c" data-name="Layer 1">
    <g>
      <g>
        <path class="d" d="m13.5,42.4c0,6.4,4.1,9.4,10.6,9.4s8.7-2.3,8.7-6.2c0-5.8-6.3-6.1-14.3-8.3C10.5,35.1,0,31.7,0,18.7S9.9,0,20.4,0s10.8,1.8,13.2,4.3h.3l.2-3.1h12.8v21h-13.1v-1.1c0-6.4-4.7-9.4-10.3-9.4s-8.2,1.8-8.2,5.8,5.8,6.3,12,7.8c9.8,2.3,20.8,5.7,20.8,19.3s-9.9,18.9-20.9,18.9-11.3-2-13.6-4.3h-.3l-.2,3.1H.3v-21h13.2v1.1Z"/>
        <path class="d" d="m115.5,49.4v12.8h-26v-12.8h5.7v-11.8h-22v11.8h5.7v12.8h-26v-12.8h5.7V14h-5.7V1.2h26v12.8h-5.7v10.8h22v-10.8h-5.7V1.2h26v12.8h-5.7v35.4h5.7Z"/>
        <path class="d" d="m184.9,62.2h-25.4v-12.8h4.1l-2.3-6.1h-21.3l-2.2,6.1h4.3v12.8h-24.2v-12.8h5.8l10.9-28.8c.7-1.8,1.9-5.4,2.4-6.5h-.3c-.7,0-1.7,0-2.6,0h-2.4V1.2h29.5l18,48.2h5.8v12.8Zm-28.4-32.1c-3.1-8.2-5.6-17.9-5.7-18.1h-.3c0,.3-2.6,9.9-5.7,18.2l-.5,1.5h12.8l-.6-1.6Z"/>
        <path class="d" d="m225.6,62.2l-11.8-21h-6.1v8.2h4v12.8h-24.3v-12.8h5.7V14h-5.7V1.2h28.8c15.3,0,24.3,7.9,24.3,20.5s-4.1,13.9-11.4,16.6l6.4,11.1h8.6v12.8h-18.7Zm-8.4-32.7c5.2,0,8.4-2.5,8.4-7.7s-2.8-7.9-8.5-7.9h-9.4v15.6h9.5Z"/>
        <path class="d" d="m247.4,62.2v-12.8h5.7V14h-5.7V1.2h50v20.1h-13.5v-7.3h-16.2v11.2h13.8v11.9h-13.8v12.3h16.7v-8.2h13.5v21h-50.5Z"/>
      </g>
      <g>
        <path class="d" d="m156.6,86.5h-5.3v-2.7h.9l-.5-1.3h-4.4l-.5,1.3h.9v2.7h-5v-2.7h1.2l2.3-6c.1-.4.4-1.1.5-1.4h0c-.1,0-.3,0-.5,0h-.5v-2.7h6.1l3.7,10h1.2v2.7Zm-5.9-6.7c-.6-1.7-1.2-3.7-1.2-3.8h0c0,0-.5,2.1-1.2,3.8v.3c-.1,0,2.5,0,2.5,0v-.3Z"/>
        <path class="d" d="m169.7,86.5h-2.6l-5.7-7.6h0s0,1.6,0,3.3v1.7h1.1v2.7h-5v-2.7h1.2v-7.3h-1.2v-2.7h3.9l5.6,7.5h0s0-1.7,0-3.1v-1.7h-1.1v-2.7h4.9v2.7h-1.2v10Z"/>
        <path class="d" d="m184.1,80.9c0,3.8-2.2,5.9-5.6,5.9s-5.6-2.1-5.6-5.9v-4.4h-1.2v-2.7h5.5v2.7h-1.2v4.3c0,2.2.9,3.1,2.5,3.1s2.5-.9,2.5-3.1v-4.3h-1.2v-2.7h5.3v2.7h-1.2v4.4Z"/>
        <path class="d" d="m198.9,86.5h-5.3v-2.7h.9l-.5-1.3h-4.4l-.5,1.3h.9v2.7h-5v-2.7h1.2l2.3-6c.1-.4.4-1.1.5-1.4h0c-.1,0-.3,0-.5,0h-.5v-2.7h6.1l3.7,10h1.2v2.7Zm-5.9-6.7c-.6-1.7-1.2-3.7-1.2-3.8h0c0,0-.5,2.1-1.2,3.8v.3c-.1,0,2.5,0,2.5,0v-.3Z"/>
        <path class="d" d="m207.7,86.5l-2.4-4.4h-1.3v1.7h.8v2.7h-5v-2.7h1.2v-7.3h-1.2v-2.7h6c3.2,0,5,1.6,5,4.2s-.8,2.9-2.4,3.5l1.3,2.3h1.8v2.7h-3.9Zm-1.7-6.8c1.1,0,1.7-.5,1.7-1.6s-.6-1.6-1.8-1.6h-2v3.2h2Z"/>
        <path class="d" d="m232.1,83.8v2.7h-5.5v-2.7h1.2v-1.4c0-1.7.1-3.7.1-3.7h0s-.6,1.1-1.4,2.6l-1.1,2h-1.7l-1.2-2c-.9-1.5-1.6-2.8-1.6-2.9h0s0,2.2,0,4v1.4h1.1v2.7h-4.9v-2.7h1.2v-7.3h-1.2v-2.7h4.3l3.3,5.7h0l3.2-5.7h4.2v2.7h-1.2v7.3h1.2Z"/>
        <path class="d" d="m246.8,86.5h-5.3v-2.7h.9l-.5-1.3h-4.4l-.5,1.3h.9v2.7h-5v-2.7h1.2l2.3-6c.1-.4.4-1.1.5-1.4h0c-.1,0-.3,0-.5,0h-.5v-2.7h6.1l3.7,10h1.2v2.7Zm-5.9-6.7c-.6-1.7-1.2-3.7-1.2-3.8h0c0,0-.5,2.1-1.2,3.8v.3c-.1,0,2.5,0,2.5,0v-.3Z"/>
        <path class="d" d="m261.4,86.5h-5.3v-2.7h.9l-.5-1.3h-4.4l-.5,1.3h.9v2.7h-5v-2.7h1.2l2.3-6c.1-.4.4-1.1.5-1.4h0c-.1,0-.3,0-.5,0h-.5v-2.7h6.1l3.7,10h1.2v2.7Zm-5.9-6.7c-.6-1.7-1.2-3.7-1.2-3.8h0c0,0-.5,2.1-1.2,3.8v.3c-.1,0,2.5,0,2.5,0v-.3Z"/>
        <path class="d" d="m273.4,80.9c0,3.8-2.2,5.9-5.6,5.9s-5.6-2.1-5.6-5.9v-4.4h-1.2v-2.7h5.5v2.7h-1.2v4.3c0,2.2.9,3.1,2.5,3.1s2.5-.9,2.5-3.1v-4.3h-1.2v-2.7h5.3v2.7h-1.2v4.4Z"/>
        <path class="d" d="m288.3,86.5h-5.3v-2.7h.9l-.5-1.3h-4.4l-.5,1.3h.9v2.7h-5v-2.7h1.2l2.3-6c.1-.4.4-1.1.5-1.4h0c-.1,0-.3,0-.5,0h-.5v-2.7h6.1l3.7,10h1.2v2.7Zm-5.9-6.7c-.6-1.7-1.2-3.7-1.2-3.8h0c0,0-.5,2.1-1.2,3.8v.3c-.1,0,2.5,0,2.5,0v-.3Z"/>
        <path class="d" d="m295.1,73.8c3.8,0,6.7,2.6,6.7,6.4s-2.9,6.3-6.7,6.3h-6v-2.7h1.2v-7.3h-1.2v-2.7h5.9Zm-.2,10c1.9,0,3.8-1,3.8-3.6s-1.9-3.7-3.8-3.7h-1.6v7.3h1.6Z"/>
      </g>
    </g>
  </g>
</svg>